<svg version="1.1" xmlns="http://www.w3.org/2000/svg" xmlns:xlink="http://www.w3.org/1999/xlink" width="829" height="449.16666" viewBox="0,0,829,449.16666"><defs><linearGradient x1="330.35338" y1="84.41595" x2="330.35338" y2="138.16666" gradientUnits="userSpaceOnUse" id="color-1"><stop offset="0" stop-color="#201d25"/><stop offset="1" stop-color="#201d25" stop-opacity="0"/></linearGradient></defs><g transform="translate(84.14662,311)"><g data-paper-data="{&quot;isPaintingLayer&quot;:true}" fill-rule="nonzero" stroke-linejoin="miter" stroke-miterlimit="10" stroke-dasharray="" stroke-dashoffset="0" style="mix-blend-mode: normal"><path d="M-84.14662,85.41595v-396.41595h829v396.41595z" fill="#201d25" stroke="none" stroke-width="0" stroke-linecap="butt"/><path d="M-80.14662,138.16666v-53.75071h821v53.75071z" fill="url(#color-1)" stroke="none" stroke-width="0" stroke-linecap="butt"/><text transform="translate(221.2068,126.76875) scale(0.5,0.5)" font-size="40" xml:space="preserve" fill="#ffffff" fill-rule="nonzero" stroke="none" stroke-width="1" stroke-linecap="butt" stroke-linejoin="miter" stroke-miterlimit="10" stroke-dasharray="" stroke-dashoffset="0" font-family="Sans Serif" font-weight="normal" text-anchor="start" style="mix-blend-mode: normal"><tspan x="0" dy="0">Welcome to</tspan></text><path d="M351.47284,115.06789l-1.23344,8.45955" fill="none" stroke="#ff0000" stroke-width="12.5" stroke-linecap="round"/><path d="M346.54021,118.61813l8.30956,1.43688" fill="none" stroke="#ff0000" stroke-width="12.5" stroke-linecap="round"/><path d="M348.3888,122.44543v-6.7619l5.65035,3.51989c0,0 -0.34086,0.19557 -0.66601,0.38214c-0.8895,0.51037 -4.98435,2.85987 -4.98435,2.85987z" fill="#ffffff" stroke="none" stroke-width="0" stroke-linecap="butt"/><path d="M395.99082,110.44941c0.69779,0 1.39558,0 2.11452,0c0.05815,1.57003 0.1163,3.14006 0.17621,4.75767c0.29075,-0.29075 0.58149,-0.58149 0.88105,-0.88105c0.79025,-0.14368 1.12087,-0.06929 1.80615,0.35242c0.95657,0.90045 1.15527,2.27612 1.21501,3.53495c0.00436,0.62051 0.00712,1.24095 0.00744,1.86147c0.00216,0.21284 0.00432,0.42567 0.00654,0.64496c0.00632,3.91556 0.00632,3.91556 -1.27305,5.41226c-0.41002,0.20501 -0.67792,0.21127 -1.13435,0.22026c-0.20682,0.00681 -0.20682,0.00681 -0.41781,0.01377c-0.47566,-0.07122 -0.62836,-0.20702 -0.91478,-0.58645c0,-0.1163 0,-0.2326 0,-0.35242c-0.1163,0 -0.2326,0 -0.35242,0c-0.05815,0.29075 -0.1163,0.58149 -0.17621,0.88105c-0.63964,0 -1.27928,0 -1.93831,0c0,-5.23343 0,-10.46686 0,-15.85888z" fill="#ffffff" stroke="none" stroke-width="1" stroke-linecap="butt"/><path d="M374.01485,114.46025c0.91753,0.49286 1.292,0.94612 1.59071,1.92523c0.33656,1.51662 0.3767,3.05524 0.39647,4.60348c0.00988,0.29046 0.00988,0.29046 0.01996,0.58679c0.01592,1.50072 -0.24339,2.9899 -1.23872,4.17487c-0.257,0.20525 -0.257,0.20525 -0.60942,0.20525c0,0.1163 0,0.2326 0,0.35242c-0.42251,0.02392 -0.84365,0.0413 -1.26651,0.05507c-0.11868,0.00738 -0.23737,0.01476 -0.35965,0.02237c-0.68015,0.01659 -0.9787,-0.04733 -1.51878,-0.47184c-0.33224,-0.4263 -0.56968,-0.78364 -0.77574,-1.27959c-0.05542,-0.12902 -0.11085,-0.25804 -0.16795,-0.39097c-0.41074,-1.17583 -0.349,-2.36539 -0.34967,-3.59578c-0.00216,-0.2067 -0.00432,-0.4134 -0.00654,-0.62637c-0.0031,-1.85853 0.02998,-3.68357 1.27305,-5.16653c0.80599,-0.73691 2.01041,-0.7584 3.01277,-0.39441z" fill="#ffffff" stroke="none" stroke-width="1" stroke-linecap="butt"/><path d="M407.09204,114.32603c0.86155,0.38291 1.2175,0.87245 1.61067,1.69327c0.41898,1.16552 0.55331,2.18941 0.52588,3.41682c-0.00727,0.46519 -0.01454,0.93039 -0.02203,1.40968c-1.27928,0 -2.55857,0 -3.87662,0c0.02544,0.41431 0.05088,0.82863 0.07709,1.25549c0.0076,0.12837 0.01519,0.25673 0.02302,0.38899c0.04459,0.6952 0.12538,1.37111 0.25231,2.05592c0.3489,0 0.69779,0 1.05726,0c0.1163,-0.63964 0.2326,-1.27928 0.35242,-1.93831c0.69779,0 1.39558,0 2.11452,0c0,1.28558 -0.22836,2.33097 -1.14536,3.27089c-0.98018,0.5636 -1.92723,0.51371 -3.02861,0.30837c-0.71368,-0.28278 -0.9128,-0.44137 -1.28853,-1.11232c-0.50508,-1.48411 -0.6173,-2.93212 -0.60723,-4.49172c0.0015,-0.35384 -0.0036,-0.70717 -0.00916,-1.06096c0.00074,-1.49854 0.04571,-3.24978 1.06014,-4.45734c0.92421,-0.79389 1.72615,-0.86384 2.90424,-0.73878z" fill="#ffffff" stroke="none" stroke-width="1" stroke-linecap="butt"/><path d="M377.16943,114.50225c0.69779,0 1.39558,0 2.11452,0c0.00349,0.27388 0.00698,0.54776 0.01058,0.82994c0.0134,1.01542 0.02903,2.03079 0.04534,3.04616c0.00675,0.4396 0.01289,0.87921 0.01841,1.31882c0.00804,0.63163 0.01826,1.26318 0.02891,1.89477c0.00204,0.19679 0.00407,0.39358 0.00617,0.59633c0.0035,0.18339 0.007,0.36679 0.01061,0.55574c0.00235,0.16121 0.0047,0.32243 0.00711,0.48852c0.05143,0.45347 0.17235,0.74625 0.40149,1.13746c0.17445,0 0.3489,0 0.52863,0c0.57192,-1.08592 0.61131,-2.02824 0.6188,-3.24267c0.00316,-0.1899 0.00633,-0.3798 0.00958,-0.57546c0.0095,-0.60318 0.0155,-1.20634 0.02139,-1.80957c0.00585,-0.41036 0.01193,-0.82071 0.01824,-1.23106c0.01493,-1.00298 0.02672,-2.00595 0.03683,-3.00899c0.69779,0 1.39558,0 2.11452,0c0,3.896 0,7.792 0,11.80606c-0.63964,0 -1.27928,0 -1.93831,0c0,-0.40704 0,-0.81409 0,-1.23347c-0.1163,0 -0.2326,0 -0.35242,0c-0.07087,0.15809 -0.07087,0.15809 -0.14317,0.31938c-0.21706,0.39985 -0.38421,0.62972 -0.73788,0.91409c-0.59751,0.1197 -1.16273,0.10629 -1.7621,0c-0.44052,-0.39647 -0.44052,-0.39647 -0.70484,-0.88105c-0.06278,-0.10529 -0.12555,-0.21058 -0.19023,-0.31907c-0.20589,-0.48971 -0.20451,-0.87304 -0.2022,-1.40397c0.00004,-0.30684 0.00004,-0.30684 0.00008,-0.61989c0.00182,-0.21992 0.00364,-0.43983 0.00551,-0.66641c0.0005,-0.22585 0.001,-0.4517 0.00151,-0.68439c0.00134,-0.59908 0.0048,-1.19813 0.00871,-1.79719c0.00361,-0.61185 0.00522,-1.2237 0.00699,-1.83555c0.00377,-1.19953 0.00997,-2.39903 0.01721,-3.59853z" fill="#ffffff" stroke="none" stroke-width="1" stroke-linecap="butt"/><path d="M388.59,114.50224c0.69779,0 1.39558,0 2.11452,0c0.00441,0.2864 0.00883,0.5728 0.01338,0.86789c0.01655,1.0594 0.03422,2.11877 0.05223,3.17814c0.00765,0.4591 0.01499,0.91821 0.02203,1.37733c0.01015,0.65871 0.02138,1.31739 0.03282,1.97608c0.00294,0.20632 0.00589,0.41263 0.00892,0.6252c0.00351,0.19048 0.00703,0.38096 0.01065,0.5772c0.00274,0.16826 0.00548,0.33651 0.0083,0.50987c0.00225,0.40882 0.00225,0.40882 0.20409,0.75604c0.3467,-0.0055 0.3467,-0.0055 0.70484,-0.17621c0.4603,-0.97645 0.41365,-1.99236 0.42538,-3.04926c0.00341,-0.19015 0.00682,-0.3803 0.01034,-0.57622c0.0105,-0.60499 0.0187,-1.20998 0.02683,-1.81501c0.00673,-0.41116 0.01361,-0.82231 0.02065,-1.23347c0.01689,-1.00584 0.03171,-2.0117 0.04543,-3.01759c0.69779,0 1.39558,0 2.11452,0c0,3.83785 0,7.6757 0,11.62985c-0.63964,0 -1.27928,0 -1.93831,0c0,-0.3489 0,-0.69779 0,-1.05726c-0.1163,0 -0.2326,0 -0.35242,0c-0.04361,0.13447 -0.08722,0.26894 -0.13216,0.40749c-0.2512,0.54009 -0.39704,0.73102 -0.9251,1.00219c-0.60572,0.0881 -0.60572,0.0881 -1.23347,0c-0.65888,-0.51246 -0.97777,-0.9775 -1.23347,-1.7621c-0.04238,-0.49395 -0.04238,-0.49395 -0.04001,-1.0382c0.00003,-0.20455 0.00005,-0.4091 0.00008,-0.61985c0.00182,-0.21901 0.00364,-0.43801 0.00551,-0.66366c0.0005,-0.2256 0.001,-0.4512 0.00151,-0.68364c0.00134,-0.59763 0.0048,-1.19522 0.00871,-1.79284c0.00361,-0.61068 0.00522,-1.22137 0.00699,-1.83206c0.00388,-1.19666 0.00997,-2.39329 0.01721,-3.58993z" fill="#ffffff" stroke="none" stroke-width="1" stroke-linecap="butt"/><path d="M363.07265,110.97805c0.75594,0 1.51188,0 2.29073,0c0.44922,1.1914 0.72579,2.07024 0.70484,3.34799c0.1163,0 0.2326,0 0.35242,0c0,0.52334 0,1.04669 0,1.58589c0.58226,-0.58226 0.60138,-0.70084 0.69383,-1.47576c0.17199,-1.20247 0.51575,-2.3041 0.89206,-3.45812c0.75594,0 1.51188,0 2.29073,0c-0.11817,0.59085 -0.23355,1.09297 -0.42607,1.65266c-0.04972,0.14567 -0.09943,0.29134 -0.15066,0.44143c-0.05318,0.15575 -0.10636,0.3115 -0.16115,0.47197c-0.11136,0.33863 -0.22263,0.67728 -0.33383,1.01596c-0.1992,0.60131 -0.41093,1.19148 -0.6484,1.77862c-1.17627,3.09505 -0.92636,6.52962 -0.92304,9.79341c-0.69779,0 -1.39558,0 -2.11452,0c0.00666,-0.1801 0.01332,-0.3602 0.02018,-0.54575c0.14628,-4.69006 -0.5382,-8.66598 -2.14239,-13.07594c-0.19354,-0.53445 -0.34472,-0.95901 -0.34472,-1.53235z" fill="#ffffff" stroke="none" stroke-width="1" stroke-linecap="butt"/><path d="M382.71782,110.97805c2.15152,0 4.30304,0 6.51976,0c0,0.69779 0,1.39558 0,2.11452c-0.69779,0 -1.39558,0 -2.11452,0c0,4.36119 0,8.72239 0,13.21574c-0.75594,0 -1.51188,0 -2.29073,0c0,-4.36119 0,-8.72239 0,-13.21574c-0.69779,0 -1.39558,0 -2.11452,0c0,-0.69779 0,-1.39558 0,-2.11452z" fill="#ffffff" stroke="none" stroke-width="1" stroke-linecap="butt"/><path d="M412.73075,116.08814c0.52334,0 1.04669,0 1.58589,0c0,0.93039 0,1.86078 0,2.81936c0.87224,0 1.74448,0 2.64315,0c0,0.52334 0,1.04669 0,1.58589c-0.87224,0 -1.74448,0 -2.64315,0c0,0.93039 0,1.86078 0,2.81936c-0.52334,0 -1.04669,0 -1.58589,0c0,-0.93039 0,-1.86078 0,-2.81936c-0.87224,0 -1.74448,0 -2.64315,0c0,-0.52334 0,-1.04669 0,-1.58589c0.87224,0 1.74448,0 2.64315,0c0,-0.93039 0,-1.86078 0,-2.81936z" fill="#ffffff" stroke="none" stroke-width="1" stroke-linecap="butt"/><path d="M397.92913,110.44941c0.05815,0 0.1163,0 0.17621,0c0.05815,1.57003 0.1163,3.14006 0.17621,4.75767c0.29075,-0.29075 0.58149,-0.58149 0.88105,-0.88105c0.6718,-0.05507 0.6718,-0.05507 1.23347,0c0,0.05815 0,0.1163 0,0.17621c-0.18899,0.04361 -0.37797,0.08722 -0.57268,0.13216c-0.67314,0.22438 -0.89636,0.42232 -1.36563,0.9251c-0.17445,0 -0.3489,0 -0.52863,0c0,-1.68633 0,-3.37266 0,-5.11008z" fill="#ffffff" stroke="none" stroke-width="1" stroke-linecap="butt"/><path d="M400.39606,114.32603c0,0.05815 0,0.1163 0,0.17621c-0.18899,0.04361 -0.37797,0.08722 -0.57268,0.13216c-0.66017,0.22006 -0.92876,0.40086 -1.36563,0.9251c-0.1163,-0.05815 -0.2326,-0.1163 -0.35242,-0.17621c0.7604,-0.98852 1.04103,-1.0804 2.29073,-1.05726z" fill="#ffffff" stroke="none" stroke-width="1" stroke-linecap="butt"/><path d="M398.63397,116.26435c0.4185,0.03304 0.4185,0.03304 0.88105,0.17621c0.56141,1.02288 0.41135,2.22146 0.40804,3.35448c-0.00056,0.39795 0.00357,0.79567 0.00804,1.19359c0.00535,1.27629 -0.00867,2.39187 -0.5923,3.55758c-0.31938,-0.02203 -0.31938,-0.02203 -0.70484,-0.17621c-0.52874,-0.789 -0.60693,-1.50863 -0.59884,-2.4339c-0.00051,-0.12898 -0.00101,-0.25795 -0.00153,-0.39084c-0.00036,-0.2713 0.0006,-0.5426 0.00282,-0.81389c0.00283,-0.41304 0.00002,-0.82577 -0.00336,-1.2388c0.00035,-0.26477 0.00103,-0.52955 0.00207,-0.79432c-0.00107,-0.12228 -0.00214,-0.24455 -0.00324,-0.37053c0.01164,-0.81346 0.19159,-1.3644 0.60208,-2.06337z" fill="#0f0f0f" stroke="none" stroke-width="1" stroke-linecap="butt"/><path d="M372.58798,116.26435c0.44052,0.05507 0.44052,0.05507 0.88105,0.17621c0.26757,0.53514 0.20857,1.09289 0.212,1.68019c0.001,0.13263 0.00201,0.26526 0.00304,0.40191c0.00167,0.28159 0.00282,0.56317 0.0035,0.84476c0.0017,0.4262 0.00716,0.85226 0.01273,1.27843c0.00938,1.40261 -0.00934,2.59296 -0.5837,3.90036c-0.2326,-0.05815 -0.46519,-0.1163 -0.70484,-0.17621c-0.27837,-0.86303 -0.39753,-1.58987 -0.39923,-2.50548c-0.00034,-0.11658 -0.00067,-0.23315 -0.00102,-0.35326c-0.00024,-0.24462 0.0004,-0.48924 0.00188,-0.73386c0.00189,-0.3712 0.00001,-0.74225 -0.00224,-1.11344c0.00023,-0.23931 0.00068,-0.47861 0.00138,-0.71792c0.0006,-0.32181 0.0006,-0.32181 0.0012,-0.65012c0.11532,-1.57266 0.11532,-1.57266 0.57423,-2.03157z" fill="#0f0f0f" stroke="none" stroke-width="1" stroke-linecap="butt"/><path d="M405.85857,116.26435c0.29075,0 0.58149,0 0.88105,0c0.40025,0.95058 0.38839,1.80819 0.35242,2.81936c-0.52334,0 -1.04669,0 -1.58589,0c-0.03597,-1.01117 -0.04783,-1.86877 0.35242,-2.81936z" fill="#0f0f0f" stroke="none" stroke-width="1" stroke-linecap="butt"/></g></g></svg>