<svg version="1.1" xmlns="http://www.w3.org/2000/svg" xmlns:xlink="http://www.w3.org/1999/xlink" width="320" height="91.375" viewBox="0,0,320,91.375"><g transform="translate(-161.5,-135)"><g data-paper-data="{&quot;isPaintingLayer&quot;:true}" fill-rule="nonzero" stroke="none" stroke-width="1" stroke-linecap="butt" stroke-linejoin="miter" stroke-miterlimit="10" stroke-dasharray="" stroke-dashoffset="0" style="mix-blend-mode: normal"><g fill="#ffffff"><path d="M362.5,135c3.96,0 7.92,0 12,0c0.33,8.91 0.66,17.82 1,27c1.65,-1.65 3.3,-3.3 5,-5c4.4847,-0.8154 6.361,-0.39323 10.25,2c5.42857,5.1101 6.55624,12.91708 6.89526,20.06104c0.02477,3.52141 0.04039,7.04245 0.04224,10.56396c0.01225,1.20785 0.0245,2.4157 0.03711,3.66016c0.03588,22.221 0.03588,22.221 -7.22461,30.71484c-2.32686,1.16343 -3.84722,1.19896 -6.4375,1.25c-1.17369,0.03867 -1.1737,0.03867 -2.3711,0.07813c-2.69942,-0.40419 -3.566,-1.17486 -5.1914,-3.32812c0,-0.66 0,-1.32 0,-2c-0.66,0 -1.32,0 -2,0c-0.33,1.65 -0.66,3.3 -1,5c-3.63,0 -7.26,0 -11,0c0,-29.7 0,-59.4 0,-90z"/><path d="M223.59766,157.76172c5.20703,2.79699 7.33214,5.36927 9.02734,10.92578c1.91002,8.60689 2.13781,17.33866 2.25,26.125c0.05607,1.64839 0.05607,1.64839 0.11328,3.33008c0.09034,8.51665 -1.38123,16.96786 -7.02979,23.69262c-1.45849,1.16479 -1.45849,1.16479 -3.45849,1.16479c0,0.66 0,1.32 0,2c-2.39774,0.13572 -4.78775,0.23437 -7.1875,0.3125c-0.67353,0.0419 -1.34707,0.08379 -2.04101,0.12696c-3.8599,0.09414 -5.55415,-0.26863 -8.61914,-2.67774c-1.88546,-2.41926 -3.23295,-4.44723 -4.40234,-7.26172c-0.31453,-0.73219 -0.62906,-1.46437 -0.95312,-2.21875c-2.33094,-6.6729 -1.98062,-13.42373 -1.98437,-20.40625c-0.01225,-1.17305 -0.0245,-2.34609 -0.03711,-3.55469c-0.01758,-10.54728 0.17013,-20.90444 7.22461,-29.32031c4.57406,-4.182 11.40915,-4.30393 17.09766,-2.23828z"/><path d="M425.5,157c4.88937,2.17306 6.90939,4.95119 9.14063,9.60938c2.37772,6.61436 3.14006,12.425 2.98438,19.39063c-0.04125,2.64 -0.0825,5.28 -0.125,8c-7.26,0 -14.52,0 -22,0c0.14438,2.35125 0.28875,4.7025 0.4375,7.125c0.04311,0.72848 0.0862,1.45696 0.13061,2.20752c0.25307,3.94529 0.71152,7.78114 1.43189,11.66748c1.98,0 3.96,0 6,0c0.66,-3.63 1.32,-7.26 2,-11c3.96,0 7.92,0 12,0c0,7.29573 -1.29595,13.22835 -6.5,18.5625c-5.56256,3.19848 -10.93713,2.91532 -17.1875,1.75c-4.05016,-1.60477 -5.18018,-2.50478 -7.3125,-6.3125c-2.86636,-8.42237 -3.50324,-16.63995 -3.44605,-25.49072c0.00854,-2.00804 -0.02042,-4.01324 -0.052,-6.02099c0.0042,-8.5043 0.25939,-18.44266 6.01635,-25.29566c5.24496,-4.50536 9.796,-4.90233 16.48169,-4.19262z"/><path d="M241.5,158c3.96,0 7.92,0 12,0c0.01982,1.55428 0.03964,3.10858 0.06006,4.70996c0.07603,5.76253 0.16475,11.52482 0.25733,17.28711c0.0383,2.49474 0.07315,4.98953 0.10449,7.48438c0.04563,3.58451 0.10363,7.16864 0.16406,10.75293c0.01155,1.11679 0.0231,2.23358 0.035,3.38422c0.01987,1.04077 0.03974,2.08155 0.06021,3.15387c0.01333,0.91489 0.02665,1.82979 0.04038,2.7724c0.29189,2.57344 0.9781,4.23501 2.27847,6.45514c0.99,0 1.98,0 3,0c3.24569,-6.16266 3.4692,-11.51037 3.51172,-18.40234c0.01795,-1.0777 0.0359,-2.1554 0.05439,-3.26576c0.05394,-3.42309 0.08795,-6.84605 0.12138,-10.2694c0.03319,-2.3288 0.06768,-4.65758 0.10352,-6.98633c0.08475,-5.69196 0.15164,-11.38387 0.20898,-17.07617c3.96,0 7.92,0 12,0c0,22.11 0,44.22 0,67c-3.63,0 -7.26,0 -11,0c0,-2.31 0,-4.62 0,-7c-0.66,0 -1.32,0 -2,0c-0.40218,0.89719 -0.40218,0.89719 -0.8125,1.8125c-1.23183,2.26916 -2.18041,3.57369 -4.1875,5.1875c-3.39092,0.67932 -6.59854,0.60322 -10,0c-2.5,-2.25 -2.5,-2.25 -4,-5c-0.35626,-0.59754 -0.71251,-1.19508 -1.07956,-1.81073c-1.16843,-2.77912 -1.16059,-4.95456 -1.14749,-7.96759c0.00023,-1.74135 0.00023,-1.74135 0.00045,-3.51788c0.01032,-1.24803 0.02065,-2.49607 0.03128,-3.78192c0.00283,-1.28171 0.00566,-2.56342 0.00858,-3.88397c0.00762,-3.3998 0.02725,-6.79943 0.04941,-10.19916c0.0205,-3.47226 0.0296,-6.94456 0.03967,-10.41687c0.02142,-6.80737 0.05659,-13.6146 0.09766,-20.42187z"/><path d="M320.5,158c3.96,0 7.92,0 12,0c0.02506,1.62535 0.05012,3.2507 0.07593,4.9253c0.09395,6.01213 0.19419,12.02413 0.29638,18.03613c0.04339,2.60544 0.08507,5.21091 0.125,7.81641c0.05759,3.73821 0.12132,7.47627 0.18628,11.21436c0.01671,1.17086 0.03342,2.34172 0.05064,3.54807c0.01995,1.08097 0.03989,2.16194 0.06044,3.27567c0.01554,0.95487 0.03109,1.90972 0.0471,2.89352c0.01277,2.32008 0.01276,2.32008 1.15822,4.29056c1.96756,-0.03123 1.96756,-0.03123 4,-1c2.61225,-5.54138 2.3475,-11.30677 2.41406,-17.30469c0.01936,-1.07912 0.03873,-2.15824 0.05869,-3.27005c0.05959,-3.43334 0.1061,-6.86671 0.15225,-10.30026c0.0382,-2.33335 0.07725,-4.66668 0.11719,-7c0.09584,-5.70822 0.17994,-11.4165 0.25781,-17.125c3.96,0 7.92,0 12,0c0,21.78 0,43.56 0,66c-3.63,0 -7.26,0 -11,0c0,-1.98 0,-3.96 0,-6c-0.66,0 -1.32,0 -2,0c-0.2475,0.76313 -0.495,1.52625 -0.75,2.3125c-1.4256,3.06504 -2.2532,4.14861 -5.25,5.6875c-3.4375,0.5 -3.4375,0.5 -7,0c-3.7392,-2.90826 -5.54888,-5.54734 -7,-10c-0.24051,-2.80318 -0.24051,-2.80317 -0.22705,-5.89184c0.00015,-1.16082 0.0003,-2.32166 0.00046,-3.51766c0.01033,-1.24287 0.02065,-2.48575 0.03128,-3.76628c0.00283,-1.28029 0.00566,-2.56059 0.00858,-3.87968c0.00761,-3.39156 0.02723,-6.78296 0.0494,-10.17445c0.02051,-3.46565 0.02961,-6.93134 0.03968,-10.39704c0.02204,-6.7911 0.05656,-13.58203 0.09765,-20.37304z"/><path d="M161.5,138c4.29,0 8.58,0 13,0c2.54933,6.76126 4.11888,11.74874 4,19c0.66,0 1.32,0 2,0c0,2.97 0,5.94 0,9c3.30435,-3.30435 3.41284,-3.97729 3.9375,-8.375c0.97606,-6.82405 2.92693,-13.07591 5.0625,-19.625c4.29,0 8.58,0 13,0c-0.67062,3.35309 -1.3254,6.20267 -2.41797,9.37891c-0.28215,0.82669 -0.56429,1.65339 -0.85498,2.50513c-0.3018,0.88389 -0.6036,1.76778 -0.91455,2.67846c-0.63197,1.92173 -1.26346,3.8436 -1.89453,5.76563c-1.13046,3.41249 -2.33205,6.76169 -3.67969,10.09375c-6.67538,17.56459 -5.25716,37.05597 -5.23828,55.57813c-3.96,0 -7.92,0 -12,0c0.03779,-1.02206 0.07557,-2.04414 0.1145,-3.09717c0.83015,-26.61635 -3.0543,-49.1799 -12.15817,-74.20666c-1.09832,-3.03302 -1.95633,-5.44245 -1.95633,-8.69617z"/><path d="M281.5,138c12.21,0 24.42,0 37,0c0,3.96 0,7.92 0,12c-3.96,0 -7.92,0 -12,0c0,24.75 0,49.5 0,75c-4.29,0 -8.58,0 -13,0c0,-24.75 0,-49.5 0,-75c-3.96,0 -7.92,0 -12,0c0,-3.96 0,-7.92 0,-12z"/><path d="M457.5,167c2.97,0 5.94,0 9,0c0,5.28 0,10.56 0,16c4.95,0 9.9,0 15,0c0,2.97 0,5.94 0,9c-4.95,0 -9.9,0 -15,0c0,5.28 0,10.56 0,16c-2.97,0 -5.94,0 -9,0c0,-5.28 0,-10.56 0,-16c-4.95,0 -9.9,0 -15,0c0,-2.97 0,-5.94 0,-9c4.95,0 9.9,0 15,0c0,-5.28 0,-10.56 0,-16z"/><path d="M373.5,135c0.33,0 0.66,0 1,0c0.33,8.91 0.66,17.82 1,27c1.65,-1.65 3.3,-3.3 5,-5c3.8125,-0.3125 3.8125,-0.3125 7,0c0,0.33 0,0.66 0,1c-1.0725,0.2475 -2.145,0.495 -3.25,0.75c-3.82009,1.27336 -5.0869,2.39667 -7.75,5.25c-0.99,0 -1.98,0 -3,0c0,-9.57 0,-19.14 0,-29z"/><path d="M387.5,157c0,0.33 0,0.66 0,1c-1.0725,0.2475 -2.145,0.495 -3.25,0.75c-3.74649,1.24883 -5.27074,2.27489 -7.75,5.25c-0.66,-0.33 -1.32,-0.66 -2,-1c4.31533,-5.60993 5.90792,-6.13134 13,-6z"/></g><path d="M377.5,168c2.375,0.1875 2.375,0.1875 5,1c3.18601,5.80491 2.33445,12.60692 2.31567,19.03687c-0.00315,2.25839 0.02029,4.51545 0.04566,6.77368c0.03039,7.24302 -0.04922,13.57397 -3.36133,20.18946c-1.8125,-0.125 -1.8125,-0.125 -4,-1c-3.00065,-4.47761 -3.44439,-8.56158 -3.39844,-13.8125c-0.00287,-0.73194 -0.00574,-1.4639 -0.0087,-2.21802c-0.00203,-1.53964 0.00343,-3.07931 0.01602,-4.6189c0.01607,-2.34402 0.00013,-4.68631 -0.01904,-7.03027c0.00198,-1.50261 0.00583,-3.00521 0.01172,-4.50781c-0.00608,-0.69392 -0.01215,-1.38784 -0.0184,-2.10279c0.06606,-4.61644 1.08728,-7.74307 3.41684,-11.70971z" fill="#0f0f0f"/><path d="M215.5,168c2.5,0.3125 2.5,0.3125 5,1c1.51846,3.03693 1.18364,6.20221 1.20313,9.53516c0.0057,0.75269 0.0114,1.50537 0.01728,2.28087c0.00946,1.59802 0.01599,3.19604 0.01984,4.79408c0.00963,2.41873 0.04061,4.8366 0.07226,7.25513c0.05321,7.95987 -0.05303,14.71518 -3.3125,22.13476c-1.32,-0.33 -2.64,-0.66 -4,-1c-1.57976,-4.89772 -2.256,-9.02257 -2.26562,-14.21875c-0.00191,-0.66157 -0.00383,-1.32314 -0.0058,-2.00476c-0.00135,-1.38823 0.00227,-2.77647 0.01068,-4.16467c0.01072,-2.10657 0.00007,-4.2123 -0.0127,-6.31885c0.00132,-1.35808 0.00388,-2.71615 0.00781,-4.07422c0.00339,-1.82628 0.00339,-1.82628 0.00683,-3.68946c0.65443,-8.92494 0.65443,-8.92494 3.25879,-11.52929z" fill="#0f0f0f"/><path d="M418.5,168c1.65,0 3.3,0 5,0c2.27141,5.39461 2.20414,10.26157 2,16c-2.97,0 -5.94,0 -9,0c-0.20414,-5.73843 -0.27141,-10.60539 2,-16z" fill="#0f0f0f"/></g></g></svg>